<svg width="115" height="37" viewBox="0 0 115 37" fill="none" xmlns="http://www.w3.org/2000/svg">
<path d="M19.4 2.1L17.3629 4.3023L17.3779 4.31619L17.3931 4.32988L19.4 2.1ZM22.05 7L21.1552 9.86344L26.0354 11.3885L24.9862 6.38436L22.05 7ZM21.25 6.75L18.5015 5.54754L17.1596 8.61482L20.3552 9.61344L21.25 6.75ZM21.6 5.95L18.9167 4.60836L18.8823 4.67711L18.8515 4.74754L21.6 5.95ZM23.55 3.35L25.6713 5.47132L23.55 3.35ZM26.75 1.15L28.0025 3.87603L28.0326 3.8622L28.0624 3.8477L26.75 1.15ZM36.05 1.75L34.1911 4.10465L34.2104 4.11991L34.23 4.13486L36.05 1.75ZM38.7 5.7L35.8265 6.56204L35.8289 6.5701L35.8314 6.57814L38.7 5.7ZM38.75 26.3L40.8713 28.4213L40.9079 28.3848L40.9432 28.347L38.75 26.3ZM35.15 26.3L32.9568 28.347L33.0274 28.4226L33.1031 28.4932L35.15 26.3ZM33.95 8.05L31.0848 8.9392L31.0987 8.98381L31.1139 9.02797L33.95 8.05ZM32.3 5.75L30.4511 8.11251L30.5075 8.15667L30.5659 8.19807L32.3 5.75ZM25.6 5.75L27.079 8.36007L27.0928 8.35229L27.1064 8.34437L25.6 5.75ZM23.25 8.05L25.8381 9.56716V9.56716L23.25 8.05ZM21.7 26.3L23.8213 28.4213L23.8579 28.3848L23.8932 28.347L21.7 26.3ZM18.1 26.3L15.9068 28.347L15.9421 28.3848L15.9787 28.4213L18.1 26.3ZM16.9 8L14.0348 8.8892L14.0487 8.93381L14.0639 8.97797L16.9 8ZM15.3 5.7L17.0832 3.28747L17.0832 3.28747L15.3 5.7ZM8.65 5.7L7.17096 3.08993L7.17096 3.08993L8.65 5.7ZM6.3 8L3.71191 6.48284L3.69214 6.51655L3.67327 6.55077L6.3 8ZM4.75 26.3L2.62868 24.1787L4.75 26.3ZM1.2 26.3L-0.993165 28.347L-0.957884 28.3848L-0.92132 28.4213L1.2 26.3ZM1.2 1.45L3.32132 3.57132L3.35788 3.53475L3.39317 3.49695L1.2 1.45ZM4.75 1.45L2.55684 3.49695L2.62742 3.57258L2.70304 3.64316L4.75 1.45ZM5.5 6.2L7.00311 8.79628L8.5 7.92966V6.2H5.5ZM4.55 6.75L1.69122 5.84039L-0.661118 13.2335L6.05311 9.34628L4.55 6.75ZM7.7 2.4L5.88475 0.0115147L5.86114 0.0294571L5.83789 0.0478611L7.7 2.4ZM10.45 0.85L11.5642 3.63543L11.5642 3.63543L10.45 0.85ZM13.7 3.25C15.6858 3.25 16.757 3.74182 17.3629 4.3023L21.4371 -0.102299C19.3764 -2.00849 16.6476 -2.75 13.7 -2.75V3.25ZM17.3931 4.32988C18.1736 5.03229 18.7873 6.05817 19.1139 7.61564L24.9862 6.38436C24.4461 3.80849 23.2931 1.56771 21.4069 -0.129885L17.3931 4.32988ZM22.9448 4.13656L22.1448 3.88656L20.3552 9.61344L21.1552 9.86344L22.9448 4.13656ZM23.9985 7.95246L24.3485 7.15245L18.8515 4.74754L18.5015 5.54754L23.9985 7.95246ZM24.2833 7.29164C24.54 6.77814 24.9751 6.16754 25.6713 5.47132L21.4287 1.22868C20.3916 2.26579 19.5266 3.38853 18.9167 4.60836L24.2833 7.29164ZM25.6713 5.47132C26.3036 4.83908 27.0707 4.30414 28.0025 3.87603L25.4975 -1.57603C23.9626 -0.870811 22.5964 0.0609245 21.4287 1.22868L25.6713 5.47132ZM28.0624 3.8477C28.8781 3.45086 29.745 3.25 30.7 3.25V-2.75C28.855 -2.75 27.0885 -2.35086 25.4376 -1.54771L28.0624 3.8477ZM30.7 3.25C32.6052 3.25 33.6381 3.66808 34.1911 4.10465L37.9089 -0.604647C35.9286 -2.16808 33.3948 -2.75 30.7 -2.75V3.25ZM34.23 4.13486C34.947 4.68209 35.4907 5.44261 35.8265 6.56204L41.5735 4.83796C40.9093 2.62406 39.6863 0.751247 37.87 -0.634855L34.23 4.13486ZM35.8314 6.57814C36.2296 7.87879 36.45 9.4094 36.45 11.2H42.45C42.45 8.92393 42.1704 6.78787 41.5686 4.82186L35.8314 6.57814ZM36.45 11.2V24.45H42.45V11.2H36.45ZM36.45 24.45C36.45 24.4945 36.4438 24.4677 36.4691 24.4008C36.481 24.3696 36.4965 24.3383 36.5144 24.3097C36.5322 24.2813 36.548 24.2625 36.5568 24.253L40.9432 28.347C41.9679 27.249 42.45 25.8831 42.45 24.45H36.45ZM36.6287 24.1787C36.6819 24.1255 36.7651 24.0669 36.8627 24.029C36.9541 23.9934 36.996 24 36.95 24V30C38.3821 30 39.777 29.5156 40.8713 28.4213L36.6287 24.1787ZM36.95 24C36.9393 24 36.9865 23.9995 37.0623 24.029C37.1394 24.0589 37.1859 24.0965 37.197 24.1068L33.1031 28.4932C34.1729 29.4916 35.5099 30 36.95 30V24ZM37.3432 24.253C37.352 24.2625 37.3678 24.2813 37.3856 24.3097C37.4035 24.3383 37.419 24.3696 37.4309 24.4008C37.4562 24.4677 37.45 24.4945 37.45 24.45H31.45C31.45 25.8831 31.9321 27.249 32.9568 28.347L37.3432 24.253ZM37.45 24.45V11.25H31.45V24.45H37.45ZM37.45 11.25C37.45 9.79673 37.2421 8.39425 36.7861 7.07203L31.1139 9.02797C31.3246 9.63908 31.45 10.3699 31.45 11.25H37.45ZM36.8152 7.1608C36.3266 5.58629 35.3907 4.26287 34.0341 3.30193L30.5659 8.19807C30.8093 8.37047 30.9734 8.58037 31.0848 8.9392L36.8152 7.1608ZM34.1489 3.38749C32.678 2.2363 30.8717 1.85 29.1 1.85V7.85C30.0616 7.85 30.3887 8.0637 30.4511 8.11251L34.1489 3.38749ZM29.1 1.85C27.3189 1.85 25.6243 2.26685 24.0936 3.15563L27.1064 8.34437C27.6424 8.03315 28.2811 7.85 29.1 7.85V1.85ZM24.121 3.13993C22.6739 3.95992 21.5027 5.09847 20.6619 6.53284L25.8381 9.56716C26.1306 9.06819 26.5261 8.67341 27.079 8.36007L24.121 3.13993ZM20.6619 6.53284C19.8142 7.97901 19.4 9.57292 19.4 11.25H25.4C25.4 10.5937 25.5525 10.0543 25.8381 9.56716L20.6619 6.53284ZM19.4 11.25V24.45H25.4V11.25H19.4ZM19.4 24.45C19.4 24.4945 19.3938 24.4677 19.4191 24.4008C19.431 24.3696 19.4465 24.3383 19.4644 24.3097C19.4822 24.2813 19.498 24.2625 19.5068 24.253L23.8932 28.347C24.9179 27.249 25.4 25.8831 25.4 24.45H19.4ZM19.5787 24.1787C19.6319 24.1255 19.7151 24.0669 19.8127 24.029C19.9041 23.9934 19.946 24 19.9 24V30C21.3321 30 22.727 29.5156 23.8213 28.4213L19.5787 24.1787ZM19.9 24C19.854 24 19.8959 23.9934 19.9873 24.029C20.0849 24.0669 20.1681 24.1255 20.2213 24.1787L15.9787 28.4213C17.073 29.5156 18.4679 30 19.9 30V24ZM20.2932 24.253C20.302 24.2625 20.3178 24.2813 20.3356 24.3097C20.3535 24.3383 20.369 24.3696 20.3809 24.4008C20.4062 24.4677 20.4 24.4945 20.4 24.45H14.4C14.4 25.8831 14.8821 27.249 15.9068 28.347L20.2932 24.253ZM20.4 24.45V11.2H14.4V24.45H20.4ZM20.4 11.2C20.4 9.74673 20.1921 8.34425 19.7361 7.02203L14.0639 8.97797C14.2746 9.58908 14.4 10.3199 14.4 11.2H20.4ZM19.7652 7.1108C19.2883 5.57412 18.3962 4.25794 17.0832 3.28747L13.5168 8.11253C13.7372 8.27539 13.9117 8.49255 14.0348 8.8892L19.7652 7.1108ZM17.0832 3.28747C15.6195 2.20563 13.8399 1.85 12.1 1.85V7.85C13.0934 7.85 13.4472 8.06104 13.5168 8.11253L17.0832 3.28747ZM12.1 1.85C10.3507 1.85 8.67854 2.23564 7.17096 3.08993L10.129 8.31007C10.6215 8.03103 11.2493 7.85 12.1 7.85V1.85ZM7.17096 3.08993C5.72393 3.90992 4.55274 5.04847 3.71191 6.48284L8.88809 9.51716C9.18059 9.01819 9.57607 8.62341 10.129 8.31006L7.17096 3.08993ZM3.67327 6.55077C2.8811 7.98656 2.5 9.55623 2.5 11.2H8.5C8.5 10.5104 8.65223 9.94677 8.92673 9.44923L3.67327 6.55077ZM2.5 11.2V24.45H8.5V11.2H2.5ZM2.5 24.45C2.5 24.4698 2.49798 24.42 2.53228 24.3354C2.56746 24.2486 2.61277 24.1946 2.62868 24.1787L6.87132 28.4213C7.95681 27.3358 8.5 25.946 8.5 24.45H2.5ZM2.62868 24.1787C2.66787 24.1395 2.74386 24.0814 2.84833 24.0396C2.94929 23.9992 3.01185 24 3 24V30C4.44208 30 5.80527 29.4874 6.87132 28.4213L2.62868 24.1787ZM3 24C2.95403 24 2.9959 23.9934 3.08734 24.029C3.18494 24.0669 3.2681 24.1255 3.32132 24.1787L-0.92132 28.4213C0.172957 29.5156 1.56791 30 3 30V24ZM3.39317 24.253C3.40198 24.2625 3.41783 24.2813 3.43561 24.3097C3.45353 24.3383 3.46903 24.3696 3.48086 24.4008C3.50617 24.4677 3.5 24.4945 3.5 24.45H-2.5C-2.5 25.8831 -2.0179 27.249 -0.993165 28.347L3.39317 24.253ZM3.5 24.45V3.25H-2.5V24.45H3.5ZM3.5 3.25C3.5 3.20403 3.50657 3.2459 3.47101 3.33734C3.43306 3.43494 3.37455 3.51809 3.32132 3.57132L-0.921322 -0.67132C-2.0156 0.422956 -2.5 1.81791 -2.5 3.25H3.5ZM3.39317 3.49695C3.35089 3.54225 3.26818 3.60909 3.15385 3.65673C3.04424 3.7024 2.97879 3.7 3 3.7V-2.3C1.50231 -2.3 0.0851552 -1.7523 -0.993165 -0.596958L3.39317 3.49695ZM3 3.7C2.98576 3.7 2.8993 3.69575 2.78074 3.64493C2.6606 3.59344 2.58531 3.52746 2.55684 3.49695L6.94316 -0.596958C5.8942 -1.72084 4.50943 -2.3 3 -2.3V3.7ZM2.70304 3.64316C2.65775 3.60089 2.59091 3.51818 2.54327 3.40384C2.4976 3.29424 2.5 3.22879 2.5 3.25H8.5C8.5 1.75231 7.9523 0.335154 6.79696 -0.743166L2.70304 3.64316ZM2.5 3.25V6.2H8.5V3.25H2.5ZM3.99689 3.60372L3.04689 4.15372L6.05311 9.34628L7.00311 8.79628L3.99689 3.60372ZM7.40878 7.65961C7.53405 7.26591 7.7656 6.78405 8.16272 6.21319L3.23729 2.78681C2.56773 3.74928 2.03262 4.76743 1.69122 5.84039L7.40878 7.65961ZM8.16272 6.21319C8.51347 5.70898 8.97136 5.21982 9.56211 4.75214L5.83789 0.0478611C4.82864 0.846849 3.9532 1.75768 3.23729 2.78681L8.16272 6.21319ZM9.51525 4.78848C10.1276 4.32308 10.8073 3.93816 11.5642 3.63543L9.33583 -1.93543C8.09266 -1.43817 6.93904 -0.789751 5.88475 0.0115147L9.51525 4.78848ZM11.5642 3.63543C12.1813 3.38858 12.883 3.25 13.7 3.25V-2.75C12.1836 -2.75 10.7187 -2.48858 9.33583 -1.93543L11.5642 3.63543ZM65.3473 2.1L63.3101 4.3023L63.3252 4.31619L63.3404 4.32988L65.3473 2.1ZM67.9973 7L67.1024 9.86344L71.9827 11.3885L70.9334 6.38436L67.9973 7ZM67.1973 6.75L64.4488 5.54754L63.1069 8.61482L66.3024 9.61344L67.1973 6.75ZM67.5473 5.95L64.864 4.60836L64.8296 4.67711L64.7988 4.74754L67.5473 5.95ZM69.4973 3.35L71.6186 5.47132L69.4973 3.35ZM72.6973 1.15L73.9498 3.87603L73.9799 3.8622L74.0097 3.8477L72.6973 1.15ZM81.9973 1.75L80.1383 4.10465L80.1577 4.11991L80.1772 4.13486L81.9973 1.75ZM84.6473 5.7L81.7738 6.56204L81.7762 6.5701L81.7787 6.57814L84.6473 5.7ZM84.6973 26.3L86.8186 28.4213L86.8551 28.3848L86.8904 28.347L84.6973 26.3ZM81.0973 26.3L78.9041 28.347L78.9747 28.4226L79.0503 28.4932L81.0973 26.3ZM79.8973 8.05L77.0321 8.9392L77.0459 8.98381L77.0611 9.02797L79.8973 8.05ZM78.2473 5.75L76.3983 8.11251L76.4548 8.15667L76.5132 8.19807L78.2473 5.75ZM71.5473 5.75L73.0263 8.36007L73.04 8.35229L73.0537 8.34437L71.5473 5.75ZM69.1973 8.05L71.7854 9.56716V9.56716L69.1973 8.05ZM67.6473 26.3L69.7686 28.4213L69.8052 28.3848L69.8404 28.347L67.6473 26.3ZM64.0473 26.3L61.8541 28.347L61.8894 28.3848L61.9259 28.4213L64.0473 26.3ZM62.8473 8L59.9821 8.8892L59.9959 8.93381L60.0111 8.97797L62.8473 8ZM61.2473 5.7L63.0304 3.28747V3.28747L61.2473 5.7ZM54.5973 5.7L53.1182 3.08993V3.08993L54.5973 5.7ZM52.2473 8L49.6592 6.48284L49.6394 6.51655L49.6205 6.55077L52.2473 8ZM50.6973 26.3L48.5759 24.1787L50.6973 26.3ZM47.1473 26.3L44.9541 28.347L44.9894 28.3848L45.0259 28.4213L47.1473 26.3ZM47.1473 1.45L49.2686 3.57132L49.3051 3.53475L49.3404 3.49695L47.1473 1.45ZM50.6973 1.45L48.5041 3.49695L48.5747 3.57258L48.6503 3.64316L50.6973 1.45ZM51.4473 6.2L52.9504 8.79628L54.4473 7.92966V6.2H51.4473ZM50.4973 6.75L47.6385 5.84039L45.2861 13.2335L52.0004 9.34628L50.4973 6.75ZM53.6473 2.4L51.832 0.0115147L51.8084 0.0294571L51.7852 0.0478611L53.6473 2.4ZM56.3973 0.85L57.5114 3.63543L57.5114 3.63543L56.3973 0.85ZM59.6473 3.25C61.633 3.25 62.7042 3.74182 63.3101 4.3023L67.3844 -0.102299C65.3236 -2.00849 62.5948 -2.75 59.6473 -2.75V3.25ZM63.3404 4.32988C64.1208 5.03229 64.7346 6.05817 65.0611 7.61564L70.9334 6.38436C70.3933 3.80849 69.2404 1.56771 67.3542 -0.129885L63.3404 4.32988ZM68.8921 4.13656L68.0921 3.88656L66.3024 9.61344L67.1024 9.86344L68.8921 4.13656ZM69.9457 7.95246L70.2957 7.15245L64.7988 4.74754L64.4488 5.54754L69.9457 7.95246ZM70.2305 7.29164C70.4873 6.77814 70.9224 6.16754 71.6186 5.47132L67.3759 1.22868C66.3388 2.26579 65.4739 3.38853 64.864 4.60836L70.2305 7.29164ZM71.6186 5.47132C72.2508 4.83908 73.018 4.30414 73.9498 3.87603L71.4448 -1.57603C69.9099 -0.870811 68.5437 0.0609245 67.3759 1.22868L71.6186 5.47132ZM74.0097 3.8477C74.8254 3.45086 75.6922 3.25 76.6473 3.25V-2.75C74.8023 -2.75 73.0358 -2.35086 71.3849 -1.54771L74.0097 3.8477ZM76.6473 3.25C78.5525 3.25 79.5854 3.66808 80.1383 4.10465L83.8562 -0.604647C81.8759 -2.16808 79.3421 -2.75 76.6473 -2.75V3.25ZM80.1772 4.13486C80.8943 4.68209 81.438 5.44261 81.7738 6.56204L87.5207 4.83796C86.8566 2.62406 85.6336 0.751247 83.8173 -0.634855L80.1772 4.13486ZM81.7787 6.57814C82.1768 7.87879 82.3973 9.4094 82.3973 11.2H88.3973C88.3973 8.92393 88.1177 6.78787 87.5159 4.82186L81.7787 6.57814ZM82.3973 11.2V24.45H88.3973V11.2H82.3973ZM82.3973 24.45C82.3973 24.4945 82.3911 24.4677 82.4164 24.4008C82.4282 24.3696 82.4437 24.3383 82.4617 24.3097C82.4794 24.2813 82.4953 24.2625 82.5041 24.253L86.8904 28.347C87.9152 27.249 88.3973 25.8831 88.3973 24.45H82.3973ZM82.576 24.1787C82.6292 24.1255 82.7123 24.0669 82.8099 24.029C82.9014 23.9934 82.9432 24 82.8973 24V30C84.3294 30 85.7243 29.5156 86.8186 28.4213L82.576 24.1787ZM82.8973 24C82.8866 24 82.9338 23.9995 83.0096 24.029C83.0866 24.0589 83.1331 24.0965 83.1442 24.1068L79.0503 28.4932C80.1201 29.4916 81.4572 30 82.8973 30V24ZM83.2904 24.253C83.2992 24.2625 83.3151 24.2813 83.3329 24.3097C83.3508 24.3383 83.3663 24.3696 83.3781 24.4008C83.4034 24.4677 83.3973 24.4945 83.3973 24.45H77.3973C77.3973 25.8831 77.8794 27.249 78.9041 28.347L83.2904 24.253ZM83.3973 24.45V11.25H77.3973V24.45H83.3973ZM83.3973 11.25C83.3973 9.79673 83.1893 8.39425 82.7334 7.07203L77.0611 9.02797C77.2719 9.63908 77.3973 10.3699 77.3973 11.25H83.3973ZM82.7625 7.1608C82.2738 5.58629 81.3379 4.26287 79.9813 3.30193L76.5132 8.19807C76.7566 8.37047 76.9207 8.58037 77.0321 8.9392L82.7625 7.1608ZM80.0962 3.38749C78.6252 2.2363 76.819 1.85 75.0473 1.85V7.85C76.0089 7.85 76.336 8.0637 76.3983 8.11251L80.0962 3.38749ZM75.0473 1.85C73.2661 1.85 71.5715 2.26685 70.0409 3.15563L73.0537 8.34437C73.5897 8.03315 74.2284 7.85 75.0473 7.85V1.85ZM70.0682 3.13993C68.6212 3.95992 67.45 5.09847 66.6092 6.53284L71.7854 9.56716C72.0779 9.06819 72.4733 8.67341 73.0263 8.36007L70.0682 3.13993ZM66.6092 6.53284C65.7614 7.97901 65.3473 9.57292 65.3473 11.25H71.3473C71.3473 10.5937 71.4998 10.0543 71.7854 9.56716L66.6092 6.53284ZM65.3473 11.25V24.45H71.3473V11.25H65.3473ZM65.3473 24.45C65.3473 24.4945 65.3411 24.4677 65.3664 24.4008C65.3782 24.3696 65.3937 24.3383 65.4117 24.3097C65.4294 24.2813 65.4453 24.2625 65.4541 24.253L69.8404 28.347C70.8652 27.249 71.3473 25.8831 71.3473 24.45H65.3473ZM65.5259 24.1787C65.5792 24.1255 65.6623 24.0669 65.7599 24.029C65.8514 23.9934 65.8932 24 65.8473 24V30C67.2794 30 68.6743 29.5156 69.7686 28.4213L65.5259 24.1787ZM65.8473 24C65.8013 24 65.8432 23.9934 65.9346 24.029C66.0322 24.0669 66.1154 24.1255 66.1686 24.1787L61.9259 28.4213C63.0202 29.5156 64.4152 30 65.8473 30V24ZM66.2404 24.253C66.2493 24.2625 66.2651 24.2813 66.2829 24.3097C66.3008 24.3383 66.3163 24.3696 66.3281 24.4008C66.3534 24.4677 66.3473 24.4945 66.3473 24.45H60.3473C60.3473 25.8831 60.8294 27.249 61.8541 28.347L66.2404 24.253ZM66.3473 24.45V11.2H60.3473V24.45H66.3473ZM66.3473 11.2C66.3473 9.74673 66.1393 8.34425 65.6834 7.02203L60.0111 8.97797C60.2219 9.58908 60.3473 10.3199 60.3473 11.2H66.3473ZM65.7125 7.1108C65.2356 5.57412 64.3434 4.25794 63.0304 3.28747L59.4641 8.11253C59.6844 8.27539 59.859 8.49255 59.9821 8.8892L65.7125 7.1108ZM63.0304 3.28747C61.5668 2.20563 59.7872 1.85 58.0473 1.85V7.85C59.0407 7.85 59.3944 8.06104 59.4641 8.11253L63.0304 3.28747ZM58.0473 1.85C56.298 1.85 54.6258 2.23564 53.1182 3.08993L56.0763 8.31007C56.5687 8.03103 57.1966 7.85 58.0473 7.85V1.85ZM53.1182 3.08993C51.6712 3.90992 50.5 5.04847 49.6592 6.48284L54.8354 9.51716C55.1279 9.01819 55.5233 8.62341 56.0763 8.31006L53.1182 3.08993ZM49.6205 6.55077C48.8284 7.98656 48.4473 9.55623 48.4473 11.2H54.4473C54.4473 10.5104 54.5995 9.94677 54.874 9.44923L49.6205 6.55077ZM48.4473 11.2V24.45H54.4473V11.2H48.4473ZM48.4473 24.45C48.4473 24.4698 48.4452 24.42 48.4795 24.3354C48.5147 24.2486 48.56 24.1946 48.5759 24.1787L52.8186 28.4213C53.9041 27.3358 54.4473 25.946 54.4473 24.45H48.4473ZM48.5759 24.1787C48.6151 24.1395 48.6911 24.0814 48.7956 24.0396C48.8966 23.9992 48.9591 24 48.9473 24V30C50.3894 30 51.7525 29.4874 52.8186 28.4213L48.5759 24.1787ZM48.9473 24C48.9013 24 48.9432 23.9934 49.0346 24.029C49.1322 24.0669 49.2154 24.1255 49.2686 24.1787L45.0259 28.4213C46.1202 29.5156 47.5152 30 48.9473 30V24ZM49.3404 24.253C49.3493 24.2625 49.3651 24.2813 49.3829 24.3097C49.4008 24.3383 49.4163 24.3696 49.4281 24.4008C49.4534 24.4677 49.4473 24.4945 49.4473 24.45H43.4473C43.4473 25.8831 43.9294 27.249 44.9541 28.347L49.3404 24.253ZM49.4473 24.45V3.25H43.4473V24.45H49.4473ZM49.4473 3.25C49.4473 3.20403 49.4538 3.2459 49.4183 3.33734C49.3803 3.43494 49.3218 3.51809 49.2686 3.57132L45.0259 -0.67132C43.9317 0.422956 43.4473 1.81791 43.4473 3.25H49.4473ZM49.3404 3.49695C49.2982 3.54225 49.2155 3.60909 49.1011 3.65673C48.9915 3.7024 48.9261 3.7 48.9473 3.7V-2.3C47.4496 -2.3 46.0324 -1.7523 44.9541 -0.596958L49.3404 3.49695ZM48.9473 3.7C48.933 3.7 48.8466 3.69575 48.728 3.64493C48.6079 3.59344 48.5326 3.52746 48.5041 3.49695L52.8904 -0.596958C51.8415 -1.72084 50.4567 -2.3 48.9473 -2.3V3.7ZM48.6503 3.64316C48.605 3.60089 48.5382 3.51818 48.4905 3.40384C48.4449 3.29424 48.4473 3.22879 48.4473 3.25H54.4473C54.4473 1.75231 53.8996 0.335154 52.7442 -0.743166L48.6503 3.64316ZM48.4473 3.25V6.2H54.4473V3.25H48.4473ZM49.9442 3.60372L48.9942 4.15372L52.0004 9.34628L52.9504 8.79628L49.9442 3.60372ZM53.356 7.65961C53.4813 7.26591 53.7129 6.78405 54.11 6.21319L49.1846 2.78681C48.515 3.74928 47.9799 4.76743 47.6385 5.84039L53.356 7.65961ZM54.11 6.21319C54.4607 5.70898 54.9186 5.21982 55.5094 4.75214L51.7852 0.0478611C50.7759 0.846849 49.9005 1.75768 49.1846 2.78681L54.11 6.21319ZM55.4625 4.78848C56.0749 4.32308 56.7546 3.93816 57.5114 3.63543L55.2831 -1.93543C54.0399 -1.43817 52.8863 -0.789751 51.832 0.0115147L55.4625 4.78848ZM57.5114 3.63543C58.1286 3.38858 58.8303 3.25 59.6473 3.25V-2.75C58.1309 -2.75 56.666 -2.48858 55.2831 -1.93543L57.5114 3.63543ZM113.5 1.25L111.307 3.29695L111.343 3.33476L111.379 3.37132L113.5 1.25ZM112.5 31.7L109.949 30.1225L109.938 30.1395L109.928 30.1565L112.5 31.7ZM108 35.7L106.795 32.9526L106.766 32.9655L106.737 32.979L108 35.7ZM98.0504 36.65L98.623 33.7052L98.5834 33.6975L98.5436 33.6908L98.0504 36.65ZM95.1004 35.75L96.4881 33.0902L96.4201 33.0548L96.3504 33.0228L95.1004 35.75ZM93.4004 34.4L95.9444 32.81V32.81L93.4004 34.4ZM93.2504 32.65L96.0654 33.6871L96.1013 33.5897L96.1304 33.49L93.2504 32.65ZM94.4504 31L93.173 28.2855L93.1091 28.3156L93.0467 28.3486L94.4504 31ZM96.2004 30.95L97.3426 28.176L97.3153 28.1647L97.2877 28.154L96.2004 30.95ZM105.8 31.6L107.078 34.3145L105.8 31.6ZM108.35 29.1L105.699 27.6963L105.683 27.7272L105.667 27.7584L108.35 29.1ZM109.25 21.25L111.747 19.5859L106.25 11.3417V21.25H109.25ZM110.05 22.45L112.75 23.7588L113.499 22.2142L112.547 20.7859L110.05 22.45ZM107.95 25.2L106.013 22.9098L107.95 25.2ZM104.85 26.9L103.902 24.054L103.89 24.058L103.877 24.0622L104.85 26.9ZM96.2004 26.3L94.5814 28.8256L94.6188 28.8496L94.6569 28.8725L96.2004 26.3ZM93.2004 22.9L90.493 24.1922L90.4988 24.2044L90.5047 24.2165L93.2004 22.9ZM92.8504 1.25L94.9717 3.37132L95.0083 3.33475L95.0436 3.29695L92.8504 1.25ZM96.4004 1.25L94.2072 3.29695L94.2778 3.37258L94.3534 3.44316L96.4004 1.25ZM98.6004 21.4L96.4096 23.4495L96.4264 23.4674L96.4434 23.4851L98.6004 21.4ZM108.4 19.9L111.005 21.3884L111.016 21.3689L111.027 21.3492L108.4 19.9ZM109.9 1.25L107.779 -0.871325L107.779 -0.871323L109.9 1.25ZM111.7 3.5C111.722 3.5 111.656 3.5024 111.547 3.45673C111.432 3.40909 111.35 3.34225 111.307 3.29695L115.694 -0.796957C114.615 -1.9523 113.198 -2.5 111.7 -2.5V3.5ZM111.379 3.37132C111.326 3.31809 111.267 3.23494 111.229 3.13734C111.194 3.0459 111.2 3.00402 111.2 3.05H117.2C117.2 1.61791 116.716 0.222952 115.622 -0.871325L111.379 3.37132ZM111.2 3.05V24.55H117.2V3.05H111.2ZM111.2 24.55C111.2 27.1203 110.701 28.905 109.949 30.1225L115.052 33.2775C116.566 30.8284 117.2 27.8463 117.2 24.55H111.2ZM109.928 30.1565C109.138 31.4739 108.108 32.3771 106.795 32.9526L109.205 38.4474C111.693 37.3562 113.663 35.5928 115.073 33.2435L109.928 30.1565ZM106.737 32.979C105.321 33.6362 103.646 34 101.65 34V40C104.388 40 106.946 39.4971 109.264 38.421L106.737 32.979ZM101.65 34C100.646 34 99.6379 33.9025 98.623 33.7052L97.4778 39.5948C98.8629 39.8642 100.255 40 101.65 40V34ZM98.5436 33.6908C97.5391 33.5234 96.8858 33.2978 96.4881 33.0902L93.7127 38.4098C94.8483 39.0022 96.1617 39.3766 97.5572 39.6092L98.5436 33.6908ZM96.3504 33.0228C95.8788 32.8067 95.8657 32.6842 95.9444 32.81L90.8564 35.99C91.6017 37.1825 92.722 37.96 93.8504 38.4772L96.3504 33.0228ZM95.9444 32.81C96.0105 32.9158 96.0834 33.0897 96.1019 33.3063C96.1199 33.5156 96.0778 33.6536 96.0654 33.6871L90.4354 31.6129C89.9084 33.0431 89.9913 34.6058 90.8564 35.99L95.9444 32.81ZM96.1304 33.49C96.1713 33.3498 96.195 33.3423 96.1516 33.402C96.129 33.4331 96.0919 33.4771 96.0377 33.5248C95.983 33.5729 95.9205 33.6162 95.8541 33.6514L93.0467 28.3486C91.5659 29.1326 90.7595 30.4758 90.3704 31.81L96.1304 33.49ZM95.7278 33.7145C95.6654 33.7438 95.549 33.782 95.3986 33.7863C95.2501 33.7905 95.1479 33.7596 95.1131 33.746L97.2877 28.154C95.9457 27.6321 94.5066 27.658 93.173 28.2855L95.7278 33.7145ZM95.0581 33.724C95.6462 33.9662 96.4131 34.2729 97.3534 34.6423L99.5473 29.0577C98.621 28.6938 97.8879 28.4005 97.3426 28.176L95.0581 33.724ZM97.3534 34.6423C98.6976 35.1703 100.147 35.4 101.65 35.4V29.4C100.754 29.4 100.07 29.263 99.5473 29.0577L97.3534 34.6423ZM101.65 35.4C103.597 35.4 105.443 35.0839 107.078 34.3145L104.523 28.8855C103.891 29.1828 102.971 29.4 101.65 29.4V35.4ZM107.078 34.3145C108.828 33.4907 110.17 32.1698 111.034 30.4416L105.667 27.7584C105.398 28.2968 105.039 28.6426 104.523 28.8855L107.078 34.3145ZM111.002 30.5037C111.904 28.7988 112.25 26.8031 112.25 24.7H106.25C106.25 26.1969 105.996 27.1345 105.699 27.6963L111.002 30.5037ZM112.25 24.7V21.25H106.25V24.7H112.25ZM106.754 22.9141L107.554 24.1141L112.547 20.7859L111.747 19.5859L106.754 22.9141ZM107.351 21.1412C106.986 21.8938 106.536 22.4672 106.013 22.9098L109.888 27.4902C111.098 26.4661 112.048 25.2062 112.75 23.7588L107.351 21.1412ZM106.013 22.9098C105.469 23.37 104.781 23.7609 103.902 24.054L105.799 29.7461C107.32 29.2391 108.699 28.4966 109.888 27.4902L106.013 22.9098ZM103.877 24.0622C103.07 24.339 102.105 24.5 100.95 24.5V30.5C102.662 30.5 104.297 30.261 105.823 29.7378L103.877 24.0622ZM100.95 24.5C99.5625 24.5 98.5333 24.2012 97.7439 23.7275L94.6569 28.8725C96.5341 29.9988 98.6716 30.5 100.95 30.5V24.5ZM97.8194 23.7744C96.9981 23.2479 96.3632 22.5398 95.8961 21.5835L90.5047 24.2165C91.4376 26.1268 92.8027 27.6854 94.5814 28.8256L97.8194 23.7744ZM95.9078 21.6078C95.4271 20.6006 95.1504 19.386 95.1504 17.9H89.1504C89.1504 20.1474 89.5736 22.266 90.493 24.1922L95.9078 21.6078ZM95.1504 17.9V3.05H89.1504V17.9H95.1504ZM95.1504 3.05C95.1504 3.00402 95.157 3.0459 95.1214 3.13734C95.0835 3.23494 95.0249 3.31809 94.9717 3.37132L90.7291 -0.871323C89.6348 0.222954 89.1504 1.61791 89.1504 3.05H95.1504ZM95.0436 3.29695C95.0013 3.34225 94.9186 3.40909 94.8042 3.45673C94.6946 3.5024 94.6292 3.5 94.6504 3.5V-2.5C93.1527 -2.5 91.7355 -1.9523 90.6572 -0.796957L95.0436 3.29695ZM94.6504 3.5C94.6362 3.5 94.5497 3.49574 94.4311 3.44493C94.311 3.39344 94.2357 3.32746 94.2072 3.29695L98.5936 -0.796957C97.5446 -1.92085 96.1598 -2.5 94.6504 -2.5V3.5ZM94.3534 3.44316C94.3081 3.40089 94.2413 3.31818 94.1937 3.20384C94.148 3.09424 94.1504 3.02879 94.1504 3.05H100.15C100.15 1.55231 99.6027 0.135151 98.4473 -0.943169L94.3534 3.44316ZM94.1504 3.05V16.55H100.15V3.05H94.1504ZM94.1504 16.55C94.1504 19.1039 94.6992 21.6212 96.4096 23.4495L100.791 19.3505C100.568 19.1122 100.15 18.3961 100.15 16.55H94.1504ZM96.4434 23.4851C98.1578 25.2586 100.494 25.9 102.9 25.9V19.9C101.507 19.9 100.976 19.5414 100.757 19.3149L96.4434 23.4851ZM102.9 25.9C104.596 25.9 106.227 25.5399 107.689 24.7047L104.712 19.4953C104.307 19.7268 103.739 19.9 102.9 19.9V25.9ZM107.689 24.7047C109.087 23.9056 110.206 22.7868 111.005 21.3884L105.796 18.4116C105.528 18.8798 105.18 19.2277 104.712 19.4953L107.689 24.7047ZM111.027 21.3492C111.839 19.8771 112.2 18.248 112.2 16.55H106.2C106.2 17.3853 106.028 17.9896 105.774 18.4508L111.027 21.3492ZM112.2 16.55V3.05H106.2V16.55H112.2ZM112.2 3.05C112.2 3.00402 112.207 3.0459 112.171 3.13734C112.133 3.23493 112.075 3.31809 112.022 3.37132L107.779 -0.871323C106.685 0.222954 106.2 1.61791 106.2 3.05H112.2ZM112.022 3.37132C112.023 3.37047 112.01 3.38259 111.984 3.40056C111.957 3.41884 111.922 3.43897 111.879 3.45673C111.786 3.49547 111.716 3.5 111.7 3.5V-2.5C110.196 -2.5 108.835 -1.92751 107.779 -0.871325L112.022 3.37132Z" fill="white"/>
</svg>
