<svg width="29" height="36" viewBox="0 0 29 36" fill="none" xmlns="http://www.w3.org/2000/svg">
<path d="M27.6 1.6L25.4787 3.72132L25.5493 3.79195L25.6245 3.85773L27.6 1.6ZM28.25 4.2L25.441 3.14662L25.3986 3.25971L25.3654 3.37585L28.25 4.2ZM27.9 4.95L30.3499 6.68153L30.3989 6.6121L30.444 6.54L27.9 4.95ZM16.45 21.15L13.5546 20.3648L18.8999 22.8815L16.45 21.15ZM17.25 18.2H20.25L14.3546 17.4148L17.25 18.2ZM16.5 35.3L18.547 37.4932L18.5848 37.4579L18.6213 37.4213L16.5 35.3ZM13 35.3L10.8068 37.347L10.8774 37.4226L10.953 37.4932L13 35.3ZM12.3 18.6L15.2162 17.8961L9.3 18.6H12.3ZM12.65 20.05L10.249 21.8487L15.5662 19.3461L12.65 20.05ZM1.6 5.3L-0.826206 7.06452L-0.813712 7.0817L-0.800976 7.0987L1.6 5.3ZM1.05 4.3L-1.82348 5.16204L-1.81042 5.20557L-1.79605 5.24868L1.05 4.3ZM1.75 1.55L-0.0918215 -0.818057L-0.124836 -0.792379L-0.157122 -0.765791L1.75 1.55ZM5.6 2L8.02315 0.23128L8.01786 0.224038L8.01253 0.216826L5.6 2ZM15.6 15.7L15.2279 18.6768L22.1155 19.5378L18.0231 13.9313L15.6 15.7ZM14.4 15.55L11.938 13.8357L9.1005 17.9109L14.0279 18.5268L14.4 15.55ZM23.8 2.05L21.3519 0.315945L21.3449 0.325813L21.338 0.335737L23.8 2.05ZM25.9 3.85C25.8093 3.85 25.696 3.82943 25.5891 3.78225C25.4885 3.73786 25.4542 3.69685 25.4787 3.72132L29.7213 -0.521326C28.7304 -1.51224 27.4249 -2.15 25.9 -2.15V3.85ZM25.6245 3.85773C25.5898 3.82742 25.5158 3.74719 25.4586 3.61841C25.4323 3.55937 25.4167 3.50575 25.4083 3.46335C25.4 3.42181 25.4 3.39888 25.4 3.4H31.4C31.4 1.83595 30.7853 0.400853 29.5755 -0.65773L25.6245 3.85773ZM25.4 3.4C25.4 3.28308 25.4234 3.19372 25.441 3.14662L31.059 5.25337C31.2766 4.67295 31.4 4.05025 31.4 3.4H25.4ZM25.3654 3.37585C25.3733 3.34813 25.3806 3.32748 25.3856 3.31417C25.3907 3.30086 25.3939 3.29403 25.3939 3.29385C25.394 3.29365 25.3914 3.29921 25.3852 3.31063C25.3789 3.32202 25.3695 3.33846 25.356 3.35999L30.444 6.54C30.718 6.10152 30.9719 5.5935 31.1346 5.02415L25.3654 3.37585ZM25.4501 3.21846L14.0001 19.4185L18.8999 22.8815L30.3499 6.68153L25.4501 3.21846ZM19.3454 21.9352L20.1454 18.9852L14.3546 17.4148L13.5546 20.3648L19.3454 21.9352ZM14.25 18.2V33.45H20.25V18.2H14.25ZM14.25 33.45C14.25 33.4698 14.248 33.42 14.2823 33.3354C14.3175 33.2486 14.3628 33.1946 14.3787 33.1787L18.6213 37.4213C19.7068 36.3358 20.25 34.946 20.25 33.45H14.25ZM14.453 33.1068C14.4367 33.1221 14.4705 33.0869 14.5578 33.051C14.6489 33.0134 14.7382 33 14.8 33V39C16.2571 39 17.54 38.433 18.547 37.4932L14.453 33.1068ZM14.8 33C14.7893 33 14.8365 32.9995 14.9123 33.029C14.9894 33.0589 15.0359 33.0965 15.047 33.1068L10.953 37.4932C12.0228 38.4916 13.3599 39 14.8 39V33ZM15.1932 33.253C15.202 33.2625 15.2178 33.2813 15.2356 33.3097C15.2535 33.3383 15.269 33.3696 15.2809 33.4008C15.3062 33.4677 15.3 33.4945 15.3 33.45H9.3C9.3 34.8831 9.7821 36.249 10.8068 37.347L15.1932 33.253ZM15.3 33.45V18.6H9.3V33.45H15.3ZM9.38375 19.3039L9.73376 20.7539L15.5662 19.3461L15.2162 17.8961L9.38375 19.3039ZM15.051 18.2513L4.00098 3.5013L-0.800976 7.0987L10.249 21.8487L15.051 18.2513ZM4.02621 3.53548C3.9534 3.43538 3.9119 3.36698 3.89115 3.32924C3.86987 3.29056 3.87861 3.29899 3.89605 3.35132L-1.79605 5.24868C-1.56662 5.93697 -1.20235 6.54732 -0.826206 7.06452L4.02621 3.53548ZM3.92348 3.43796C3.89428 3.34062 3.9 3.31569 3.9 3.35H-2.1C-2.1 3.9843 -1.99428 4.59271 -1.82348 5.16204L3.92348 3.43796ZM3.9 3.35C3.9 3.37923 3.89186 3.48996 3.82525 3.63102C3.75868 3.77199 3.67867 3.84804 3.65712 3.86579L-0.157122 -0.765791C-1.41495 0.270064 -2.1 1.71914 -2.1 3.35H3.9ZM3.59182 3.91806C3.70262 3.83188 3.75196 3.81533 3.73734 3.82101C3.72936 3.82412 3.70733 3.83184 3.67261 3.8386C3.63749 3.84542 3.59577 3.85 3.55 3.85V-2.15C2.12224 -2.15 0.892129 -1.58335 -0.0918215 -0.818057L3.59182 3.91806ZM3.55 3.85C3.50801 3.85 3.44791 3.84465 3.3775 3.82645C3.30676 3.80817 3.24435 3.78176 3.19475 3.75393C3.09482 3.69787 3.10299 3.66888 3.18747 3.78317L8.01253 0.216826C7.00269 -1.14942 5.49047 -2.15 3.55 -2.15V3.85ZM3.17686 3.76872L13.1769 17.4687L18.0231 13.9313L8.02315 0.23128L3.17686 3.76872ZM15.9721 12.7232L14.7721 12.5732L14.0279 18.5268L15.2279 18.6768L15.9721 12.7232ZM16.862 17.2643L26.262 3.76426L21.338 0.335737L11.938 13.8357L16.862 17.2643ZM26.2481 3.78405C26.3323 3.66516 26.3408 3.6962 26.2384 3.75473C26.188 3.78356 26.1259 3.80995 26.0573 3.82785C25.9892 3.84561 25.934 3.85 25.9 3.85V-2.15C23.9127 -2.15 22.3676 -1.11793 21.3519 0.315945L26.2481 3.78405Z" fill="white"/>
</svg>
