<svg width="478" height="677" viewBox="0 0 478 677" fill="none" xmlns="http://www.w3.org/2000/svg">
<path d="M362.632 673.31C362.563 672.939 355.844 635.806 369.565 604.965C383.286 574.125 412.574 560.524 412.868 560.39L414.207 559.781L414.523 561.472C414.593 561.843 421.311 598.976 407.59 629.817C393.87 660.657 364.581 674.258 364.287 674.393L362.948 675.001L362.632 673.31ZM412.371 563.908C406.504 566.967 383.35 580.353 371.762 606.401C360.172 632.451 363.669 663.257 364.784 670.875C370.648 667.823 393.793 654.457 405.393 628.382C416.982 602.333 413.487 571.53 412.371 563.908Z" fill="#F1F1F1"/>
<path d="M397.104 618.993C372.447 636.973 362.951 672.686 362.951 672.686C362.951 672.686 393.432 679.248 418.089 661.268C442.746 643.288 452.242 607.574 452.242 607.574C452.242 607.574 421.761 601.013 397.104 618.993Z" fill="#F1F1F1"/>
<path d="M330.162 391.704H399.823V348.961H330.162V391.704Z" fill="black"/>
<path d="M344.72 353.193C344.896 351.451 344.755 349.684 344.307 348.015C343.858 346.347 343.113 344.818 342.125 343.536C341.136 342.254 339.927 341.251 338.584 340.596C337.241 339.941 335.795 339.652 334.35 339.748L324.55 315.023L310.701 318.577L324.945 353.257C325.239 356.19 326.41 358.89 328.237 360.846C330.063 362.802 332.418 363.879 334.856 363.871C337.293 363.863 339.644 362.771 341.462 360.804C343.28 358.836 344.439 356.128 344.72 353.193H344.72Z" fill="#FFB7B7"/>
<path d="M131.975 640.253L143.5 647.402L171.738 596.919L154.726 586.367L131.975 640.253Z" fill="#FFB7B7"/>
<path d="M130.961 633.875L153.66 647.955L153.661 647.955C157.497 650.335 160.397 654.465 161.721 659.436C163.045 664.406 162.687 669.811 160.723 674.461L160.483 675.031L123.317 651.978L130.961 633.875Z" fill="black"/>
<path d="M265.098 659.814L278.045 659.813L284.206 599.281H265.096L265.098 659.814Z" fill="#FFB7B7"/>
<path d="M261.795 654.689L287.294 654.688H287.295C291.605 654.688 295.738 656.763 298.785 660.456C301.833 664.15 303.545 669.159 303.545 674.383V675.023L261.796 675.025L261.795 654.689Z" fill="black"/>
<path d="M204.533 166.069C204.533 166.069 195.862 158.018 195.862 177.685L194.493 242.675L209.781 304.07L218.679 284.158L215.029 241.016L204.533 166.069Z" fill="white"/>
<path d="M297.282 343.828C297.282 343.828 307.336 403.175 294.601 451.88L287.563 639.144L261.756 636.707L252.707 497.782L243.994 428.726L225.896 491.689L166.24 624.926L138.758 598.929C138.758 598.929 169.212 498.212 191.711 477.065L202.995 321.297L297.282 343.828Z" fill="black"/>
<path d="M266.692 86.7186C282.943 86.7186 296.117 70.7513 296.117 51.0546C296.117 31.3579 282.943 15.3906 266.692 15.3906C250.441 15.3906 237.268 31.3579 237.268 51.0546C237.268 70.7513 250.441 86.7186 266.692 86.7186Z" fill="#FFB8B8"/>
<path d="M264.61 58.622C268.137 59.1782 270.798 54.804 272.032 50.7605C273.266 46.717 274.206 42.0096 277.273 39.8254C281.463 36.8413 286.823 40.4304 291.615 39.4458C297.025 38.334 300.543 31.3836 300.819 24.7403C301.095 18.097 298.914 11.7076 296.773 5.58248L296.026 13.1945C296.126 10.6146 295.678 8.04678 294.725 5.73663C293.772 3.42648 292.346 1.45128 290.584 0L291.547 11.1696C291.342 9.62856 290.888 8.15175 290.211 6.82393C289.534 5.49612 288.647 4.34344 287.602 3.43202C286.556 2.5206 285.372 1.86843 284.118 1.51289C282.865 1.15734 281.565 1.10543 280.294 1.36016L280.446 8.0154C274.197 7.11469 267.893 6.21269 261.625 6.89889C255.357 7.58508 249.045 9.98867 244.294 14.992C237.188 22.4761 234.593 34.7997 235.464 46.1609C236.335 57.5222 240.205 68.1954 244.238 78.5058C245.252 81.0999 246.656 84.0271 249.009 84.3576C250.075 84.3758 251.117 83.9632 251.969 83.185C252.821 82.4067 253.435 81.307 253.714 80.0591C254.221 77.5418 254.201 74.9112 253.657 72.4053C253.063 68.5758 252.313 64.6616 252.872 60.8242C253.431 56.9869 255.709 53.1948 258.9 52.7246C262.092 52.2543 265.357 56.6759 263.823 60.1001L264.61 58.622Z" fill="black"/>
<path d="M299.103 359.7L200.883 352.02L208.275 314.898L298.046 339.219L299.103 359.7Z" fill="#CBCBCB"/>
<path d="M238.53 99.6949L244.691 89.3281C244.691 89.3281 251.577 92.1645 270.018 103.29L271.321 113.003L303.331 351.637L245.147 348.595L229.303 348.186L224.117 334.098L217.723 347.887L202.251 347.488L186.507 336.426L202.023 278.903L207.042 226.357L199.284 176.854C199.284 176.854 189.522 131.396 227.121 106.885L238.53 99.6949Z" fill="white"/>
<path d="M319.169 340.499L321.281 349.46L336.067 337.789L330.488 330.047L319.169 340.499Z" fill="#CBCBCB"/>
<path d="M476.656 676.033H1.24779C0.916856 676.033 0.599474 675.873 0.365468 675.59C0.131462 675.306 0 674.921 0 674.52C0 674.119 0.131462 673.734 0.365468 673.451C0.599474 673.167 0.916856 673.008 1.24779 673.008H476.656C476.987 673.008 477.304 673.167 477.538 673.451C477.772 673.734 477.904 674.119 477.904 674.52C477.904 674.921 477.772 675.306 477.538 675.59C477.304 675.873 476.987 676.033 476.656 676.033Z" fill="#CBCBCB"/>
</svg>